<?xml version="1.0" encoding="UTF-8" standalone="no"?>
<!-- Created with Inkscape (http://www.inkscape.org/) -->
<svg xmlns:svg="http://www.w3.org/2000/svg" xmlns="http://www.w3.org/2000/svg" version="1.0" width="921.25983" height="354.33069" id="svg1877">
  <defs id="defs1879"/>
  <g id="layer1">
    <g transform="matrix(3.543307e-5,0,0,3.543307e-5,-3.510006e-4,-5.761719e-6)" style="fill:black;fill-opacity:1;fill-rule:evenodd" id="Ebene_x0020_1">
  
  <path d="M 1054220,7515010 L 500000,7515010 L 500000,7328330 L 1829770,7328330 L 1829770,7515010 L 1275470,7515010 L 1275470,8991400 L 1054220,8991400 L 1054220,7515010 L 1054220,7515010 z M 1981380,7328330 L 2178900,7328330 L 2178900,7964350 L 2183890,7964350 C 2248790,7819740 2418980,7759510 2563590,7759510 C 2880390,7759510 2977940,7941110 2977940,8199680 L 2977940,8991400 L 2779850,8991400 L 2779850,8176520 C 2779850,8029580 2686710,7934360 2535600,7934360 C 2295520,7934360 2178900,8094470 2178900,8311640 L 2178900,8991400 L 1981380,8991400 L 1981380,7328330 z M 6376300,7829400 C 6329570,7594070 6140890,7475280 5910470,7475280 C 5514360,7475280 5346840,7801240 5346840,8148530 C 5346840,8527980 5514360,8844780 5912550,8844780 C 6203780,8844780 6371300,8640190 6392210,8364870 L 6613470,8364870 C 6571730,8779220 6313410,9030800 5894060,9030800 C 5376830,9030800 5125250,8649350 5125250,8164780 C 5125250,7682450 5400070,7289010 5912550,7289010 C 6259590,7289010 6546160,7475280 6597300,7829400 L 6376300,7829400 z M 6855880,7328330 L 7053720,7328330 L 7053720,7964350 L 7058390,7964350 C 7123950,7819740 7293800,7759510 7438090,7759510 C 7754890,7759510 7853020,7941110 7853020,8199680 L 7853020,8991400 L 7654670,8991400 L 7654670,8176520 C 7654670,8029580 7561540,7934360 7410180,7934360 C 7170350,7934360 7053720,8094470 7053720,8311640 L 7053720,8991400 L 6855880,8991400 L 6855880,7328330 z M 9401460,7787410 L 9587810,7787410 L 9587810,7964350 L 9592480,7964350 C 9681190,7829400 9816150,7759510 9981590,7759510 C 10128200,7759510 10263070,7817400 10312220,7964350 C 10393850,7836480 10535800,7759510 10689500,7759510 C 10929330,7759510 11090100,7859720 11090100,8108880 L 11090100,8991400 L 10892010,8991400 L 10892010,8202100 C 10892010,8052730 10852610,7934360 10659260,7934360 C 10468240,7934360 10345120,8055150 10345120,8241420 L 10345120,8991400 L 10147030,8991400 L 10147030,8202100 C 10147030,8045740 10097960,7934360 9921030,7934360 C 9685610,7934360 9599220,8150950 9599220,8241420 L 9599220,8991400 L 9401460,8991400 L 9401460,7787410 z M 12722850,8173860 C 12692280,8022500 12587650,7934360 12424870,7934360 C 12138060,7934360 12049260,8159450 12049260,8404520 C 12049260,8625530 12149470,8844780 12401380,8844780 C 12592400,8844780 12706360,8732820 12731930,8550890 L 12934690,8550890 C 12890370,8844780 12706360,9019300 12403710,9019300 C 12035430,9019300 11839750,8763400 11839750,8404520 C 11839750,8043650 12026350,7759510 12408130,7759510 C 12680780,7759510 12899450,7887290 12927690,8173860 L 12722850,8173860 z M 14418490,7328330 L 14616000,7328330 L 14616000,8991400 L 14418490,8991400 L 14418490,7328330 z M 16773060,7829400 C 16725990,7594070 16537640,7475280 16307230,7475280 C 15911120,7475280 15743600,7801240 15743600,8148530 C 15743600,8527980 15911120,8844780 16309310,8844780 C 16600790,8844780 16768640,8640190 16789470,8364870 L 17010470,8364870 C 16968490,8779220 16709830,9030800 16290820,9030800 C 15773580,9030800 15522340,8649350 15522340,8164780 C 15522340,7682450 15796490,7289010 16309310,7289010 C 16656350,7289010 16942910,7475280 16994060,7829400 L 16773060,7829400 z M 18589150,7787410 L 18775500,7787410 L 18775500,7964350 L 18780840,7964350 C 18868970,7829400 19004420,7759510 19169860,7759510 C 19316230,7759510 19451430,7817400 19499910,7964350 C 19581300,7836480 19723830,7759510 19877270,7759510 C 20117020,7759510 20277460,7859720 20277460,8108880 L 20277460,8991400 L 20080280,8991400 L 20080280,8202100 C 20080280,8052730 20040630,7934360 19847290,7934360 C 19655690,7934360 19532820,8055150 19532820,8241420 L 19532820,8991400 L 19335050,8991400 L 19335050,8202100 C 19335050,8045740 19285650,7934360 19109050,7934360 C 18873970,7934360 18787000,8150950 18787000,8241420 L 18787000,8991400 L 18589150,8991400 L 18589150,7787410 z M 23207410,7787410 L 23394670,7787410 L 23394670,7978680 L 23399090,7978680 C 23483060,7829400 23618260,7759510 23789870,7759510 C 24106670,7759510 24205130,7941110 24205130,8199680 L 24205130,8991400 L 24007370,8991400 L 24007370,8176520 C 24007370,8029580 23913650,7934360 23762290,7934360 C 23522210,7934360 23406420,8094470 23406420,8311640 L 23406420,8991400 L 23207410,8991400 L 23207410,7787410 z M 24975690,9152420 C 24884890,9387250 24803500,9473640 24626310,9473640 C 24580160,9473640 24533430,9468980 24488780,9452810 L 24488780,9270630 C 24525520,9282040 24565750,9299120 24605740,9299120 C 24687130,9299120 24731190,9259130 24768510,9189160 L 24849900,8984650 L 24372660,7787410 L 24596330,7787410 L 24947780,8772480 L 24952450,8772480 L 25289830,7787410 L 25499670,7787410 L 24975690,9152420 z M 4303290,8609370 C 4249470,8874770 4058790,9019300 3788390,9019300 C 3404030,9019300 3222430,8753980 3210930,8385700 C 3210930,8024830 3448430,7759510 3776980,7759510 C 4203070,7759510 4333530,8157110 4322110,8448590 L 3420770,8448590 C 3413440,8658430 3532150,8844780 3795470,8844780 C 3958580,8844780 4072620,8765730 4107610,8609370 L 4303290,8609370 z M 4112270,8274320 C 4102860,8085390 3960910,7934360 3765230,7934360 C 3558060,7934360 3434600,8090050 3420770,8274320 L 4112270,8274320 z M 9177780,8609370 C 9124300,8874770 8933290,9019300 8662970,9019300 C 8278860,9019300 8097250,8753980 8085510,8385700 C 8085510,8024830 8323260,7759510 8651470,7759510 C 9077900,7759510 9208100,8157110 9196610,8448590 L 8295270,8448590 C 8288270,8658430 8406980,8844780 8670300,8844780 C 8833410,8844780 8947450,8765730 8982350,8609370 L 9177780,8609370 z M 8987100,8274320 C 8977350,8085390 8835410,7934360 8639980,7934360 C 8432800,7934360 8309100,8090050 8295270,8274320 L 8987100,8274320 z M 11399480,7328330 L 11597580,7328330 L 11597580,7570490 L 11399480,7570490 L 11399480,7328330 z M 11399480,7787410 L 11597580,7787410 L 11597580,8991400 L 11399480,8991400 L 11399480,7787410 z M 14222470,8987320 C 14188060,9007560 14143410,9019300 14080270,9019300 C 13977970,9019300 13912740,8963490 13912740,8833040 C 13803450,8960820 13656500,9019300 13488980,9019300 C 13270060,9019300 13090460,8921760 13090460,8681680 C 13090460,8409520 13292970,8350790 13498060,8311640 C 13717320,8269320 13903660,8283490 13903660,8134210 C 13903660,7961930 13761380,7934360 13635590,7934360 C 13468070,7934360 13344370,7985510 13334700,8161780 L 13137190,8161780 C 13149270,7864140 13379600,7759510 13647090,7759510 C 13864260,7759510 14098760,7808240 14098760,8090050 L 14098760,8709910 C 14098760,8803050 14098760,8844780 14161910,8844780 C 14178400,8844780 14197230,8842450 14222470,8833040 L 14222470,8987320 z M 13901250,8369290 C 13823940,8425430 13675250,8427770 13542460,8451010 C 13412260,8473920 13299720,8520900 13299720,8667850 C 13299720,8798300 13412260,8844780 13533380,8844780 C 13794290,8844780 13901250,8681680 13901250,8572050 L 13901250,8369290 z M 17772190,7759510 C 18153970,7759510 18356400,8036320 18356400,8390110 C 18356400,8742490 18153970,9019300 17772190,9019300 C 17389910,9019300 17187650,8742490 17187650,8390110 C 17187650,8036320 17389910,7759510 17772190,7759510 z M 17772190,8844780 C 17978780,8844780 18146300,8681680 18146300,8390110 C 18146300,8096890 17978780,7934360 17772190,7934360 C 17565010,7934360 17397490,8096890 17397490,8390110 C 17397490,8681680 17565010,8844780 17772190,8844780 z M 20583090,7787410 L 20780940,7787410 L 20780940,7950190 L 20785600,7950190 C 20851160,7817400 21004860,7759510 21169970,7759510 C 21540250,7759510 21724270,8052730 21724270,8392530 C 21724270,8732820 21542660,9019300 21174710,9019300 C 21051260,9019300 20874070,8972900 20785600,8830620 L 20780940,8830620 L 20780940,9452810 L 20583090,9452810 L 20583090,7787410 z M 21142390,7934360 C 20876150,7934360 20774110,8161780 20774110,8388360 C 20774110,8625530 20881400,8844780 21153800,8844780 C 21423870,8844780 21514430,8614030 21514430,8378700 C 21514430,8153280 21398630,7934360 21142390,7934360 z M 23024050,8987320 C 22989060,9007560 22944990,9019300 22881850,9019300 C 22779550,9019300 22714580,8963490 22714580,8833040 C 22604950,8960820 22458090,9019300 22290560,9019300 C 22071310,9019300 21891790,8921760 21891790,8681680 C 21891790,8409520 22094800,8350790 22299640,8311640 C 22518310,8269320 22704910,8283490 22704910,8134210 C 22704910,7961930 22563300,7934360 22437180,7934360 C 22269650,7934360 22145950,7985510 22136530,8161780 L 21939110,8161780 C 21950520,7864140 22180940,7759510 22448920,7759510 C 22664680,7759510 22900010,7808240 22900010,8090050 L 22900010,8709910 C 22900010,8803050 22900010,8844780 22963240,8844780 C 22979980,8844780 22998470,8842450 23024050,8833040 L 23024050,8987320 z M 22702580,8369290 C 22625860,8425430 22476580,8427770 22344040,8451010 C 22213260,8473920 22101550,8520900 22101550,8667850 C 22101550,8798300 22213260,8844780 22334630,8844780 C 22595620,8844780 22702580,8681680 22702580,8572050 L 22702580,8369290 z M 9457880,660310 C 9457880,660310 11535630,660310 11952650,660310 C 12868320,660310 13286500,1270680 13286500,1828810 C 13286500,2230830 13132220,2490570 12717540,2731570 C 13240350,2924910 13524830,3273450 13524830,3811590 C 13524830,4454860 13057920,5137530 11955810,5137530 C 11345450,5137530 9456710,5137530 9456710,5137530 L 9457880,660310 L 9457880,660310 z M 10820300,4126560 C 10820300,4126560 11401010,4126560 11723060,4126560 C 12044610,4126560 12189150,3896810 12189150,3693390 C 12189150,3787440 12230630,3322520 11768630,3322520 C 11525880,3322520 10820300,3322520 10820300,3322520 L 10820300,4126560 z M 10823220,2423010 C 10823220,2423010 11243490,2423010 11548790,2423010 C 11880590,2423010 12012540,2268730 12012540,2042150 C 12012540,1989500 11996710,1697440 11644010,1697440 C 11804780,1697440 10823220,1697440 10823220,1697440 L 10823220,2423010 z M 14943650,660310 L 16386300,660310 L 18029040,5132200 L 16548580,5132200 L 16331650,4462530 L 14949570,4462530 L 14765880,5129040 L 13296500,5129040 L 14943650,660310 L 14943650,660310 z M 15606080,1987500 L 15225470,3480960 L 16039510,3480960 L 15606080,1987500 z M 20329800,1990080 L 21705140,1990080 C 21705140,1230770 21133840,526360 19778500,526360 C 18291200,526360 17830700,1346810 17830700,1947520 C 17830700,2915830 19016190,3173570 19052920,3184990 C 19230110,3240880 19965760,3438060 20149360,3503540 C 20308640,3560270 20460580,3687810 20460580,3857990 C 20460580,4119570 20149360,4245020 19889870,4245020 C 19723850,4245020 19164050,4190040 19164050,3597000 L 17742810,3597000 C 17742810,4384640 18284780,5265320 19804650,5265320 C 21482130,5265320 21833010,4265010 21833010,3733370 C 21833010,3299030 21586760,2817370 21019300,2588120 C 20677760,2450000 20111790,2329210 19827900,2246410 C 19684450,2204340 19206950,2107620 19206950,1816400 C 19206950,1443200 19822310,1491430 19732350,1491430 C 20010410,1491430 20329800,1647790 20329800,1990080 L 20329800,1990080 z M 22066340,659150 L 25500020,659150 L 25500020,1840800 L 23438430,1840800 L 23438430,2628690 L 25276350,2628690 L 25276350,3758030 L 23431680,3758030 L 23431680,5136620 L 22059840,5136620 L 22066340,659150 L 22066340,659150 z M 502340,5138120 L 4980150,5138120 L 4980150,660310 L 502340,660310 L 502340,5138120 L 502340,5138120 z M 1880010,2037730 L 3602140,2037730 L 3602140,3759860 L 1880010,3759860 L 1880010,2037730 z M 6357820,2037730 L 8080200,2037730 L 8080200,3759860 L 6357820,3759860 L 6357820,2037730 z " style="fill:black;fill-opacity:1" id="path10"/>

 </g>
  </g>
</svg>